<svg xmlns="http://www.w3.org/2000/svg" aria-hidden="true" style="position:absolute;width:0;height:0;overflow:hidden"><defs><symbol id="icon-x" viewBox="0 0 24 24"><path stroke-linecap="round" stroke-linejoin="round" stroke-width="1.5" d="M18 6 6 18M6 6l12 12"/></symbol><symbol id="icon-burger" viewBox="0 0 24 24"><path stroke-linecap="round" stroke-linejoin="round" stroke-width="1.5" d="M21 10H3M21 6H3M21 14H3M21 18H3"/></symbol><symbol id="icon-shopping" viewBox="0 0 24 24"><path stroke-linecap="round" stroke-linejoin="round" stroke-width="2" d="M9 22a1 1 0 1 0 0-2 1 1 0 0 0 0 2zM20 22a1 1 0 1 0 0-2 1 1 0 0 0 0 2z"/><path stroke-linecap="round" stroke-linejoin="round" stroke-width="1.8" d="M1 1h4l2.68 13.39a2.002 2.002 0 0 0 2 1.61h9.72a2 2 0 0 0 2.001-1.61l1.6-8.39h-17"/></symbol></defs></svg>